<?xml version="1.0" encoding="UTF-8"?>
<svg id="katman_1" xmlns="http://www.w3.org/2000/svg" width="2000" height="2000" viewBox="0 0 1000 1000">
  <defs>
    <style>
      .cls-1 {
        fill: #0d323d;
      }

      .cls-2 {
        fill: #132e38;
      }

      .cls-3, .cls-4 {
        fill: none;
      }

      .cls-5 {
        fill: #303030;
      }

      .cls-4 {
        stroke: #1d1d1b;
        stroke-miterlimit: 10;
      }

      .cls-6 {
        fill: #676868;
      }

      .cls-7 {
        fill: #140d1a;
      }

      .cls-8 {
        fill: #717171;
      }

      .cls-9 {
        fill: #21152a;
      }

      .cls-10 {
        fill: #14353e;
      }

      .cls-11 {
        fill: #383c3d;
      }
    </style>
  </defs>
  <path class="cls-11" d="M535.92,358.03c-3.74-.74-8.95-1.62-15.19-2.19-7.67-.71-23.23-2.03-40.3,1.75-9,2-27.64,6.13-44.27,22.01-4.75,4.54-20.4,19.99-23.99,45.59-2.7,19.24,2.77,34.46,5.67,41.18,6.02-5.16,15.48-12.08,28.46-17.4,12.63-5.17,23.91-6.9,31.71-7.49,2.78-4.94,6.12-10.29,10.13-15.85,3.65-5.06,7.31-9.53,10.79-13.43-2.36-3.03-5.45-8.05-5.25-14.17.29-8.89,7.33-15,17.86-23.87,5.44-4.58,13.5-10.58,24.38-16.13Z"/>
  <path class="cls-6" d="M535.92,358.36c-6.25,3-14.06,7.47-22.19,14.04-8.11,6.56-14.09,13.25-18.33,18.73-1.52-.1-3.05-.19-4.57-.29.25-6.67-4.12-12.31-9.57-13.46-6.66-1.4-14.34,4.04-15,12.43-2.82.14-5.75.47-8.79,1.03-21.45,4-36.11,17.82-43.82,26.72.76-4.63,2.35-11.22,5.94-18.41,6.36-12.71,15.34-19.78,20.47-23.9,18.89-15.16,39.85-18.12,50.88-19.54,17.86-2.3,33.38-.21,44.98,2.65Z"/>
  <path class="cls-7" d="M433.18,373.15c-5.46,5.2-22.68,22.89-26.42,51.53-2.86,21.84,3.57,38.96,6.9,46.39-7.99,7.71-19.14,20.26-28.3,38.24-9.14,17.94-12.73,34.3-14.28,45.29-4.73-11.29-19.22-49.76-5.73-96.16,15.85-54.51,58.72-80.13,67.82-85.29Z"/>
  <path class="cls-10" d="M478.39,446.26c-7.08.57-17.78,2.24-29.65,7.49-10.11,4.46-16.86,9.65-21.43,13.21-6.57,5.12-15.71,13.35-24.44,25.62,3.07,8.94,8.84,21.71,19.92,33.96,5.44,6.02,14.41,15.72,29.63,21.9,9.88,4.01,18.73,5.04,24.52,5.28-4.16-7.65-9.73-20.18-11.52-36.48-1.35-12.27,0-21.75,1.26-30.32,1.49-10.05,4.6-24.32,11.73-40.66Z"/>
  <path class="cls-9" d="M376.44,568.77c-.47-9.57,0-25.77,7.05-44.04,5.37-13.92,12.65-24.11,18.17-30.65,1.85,6.84,8.74,28.95,30.72,45.18,18.72,13.83,37.98,15.7,45.51,16.04,5.03,8.7,13.72,21.25,27.82,32.85,10.4,8.56,20.55,13.97,28.41,17.4-3.09,3.15-33.51,33.14-78.39,26.64-42.93-6.21-63.6-40.65-66.06-44.92,6.45,1.87,15.96,3.85,27.53,3.52,10.56-.3,19.24-2.41,25.32-4.4-2.06-5.06-4.11-10.13-6.17-15.19-1.99,2.47-10.16,12.01-23.96,13.85-13.56,1.81-27.34-4.51-35.94-16.27Z"/>
  <path class="cls-3" d="M541.58,584.78c-4.4,1.33-10.24,2.63-17.19,2.98-7.78.39-14.35-.54-19.15-1.6,3.86,3.13,8.35,6.42,13.5,9.66,5.65,3.56,11.03,6.38,15.89,8.63,1.93-2.29,3.92-4.81,5.9-7.57,1.49-2.07,2.85-4.09,4.09-6.05-1.01-2.02-2.02-4.04-3.03-6.05Z"/>
  <path class="cls-2" d="M541.04,605.98c7.62,2.09,22.27,5.03,40.19,1.65,19.1-3.61,32.25-12.57,38.54-17.51-7.75,10.14-29.19,35.37-66.94,48-44.2,14.8-81.82,2.65-93.07-1.47,8.39.99,24.22,1.72,42.43-4.7,20.41-7.19,33.12-19.59,38.87-25.98Z"/>
  <circle class="cls-2" cx="567.68" cy="577.05" r="18.61"/>
  <circle class="cls-2" cx="623.62" cy="510.31" r="12.66"/>
  <path class="cls-2" d="M638.33,483.84c1.61-.22,2.8-6.23,1.08-11.2-.52-1.51-1.59-4.57-3.79-4.8-1.67-.17-3.5,1.33-3.96,3.01-.38,1.39.29,2.49,1.98,5.43,3.94,6.88,4.11,7.64,4.7,7.56Z"/>
  <path class="cls-2" d="M616.86,449.42c3.18-.18,5.21,5.03,5.54,5.87.59,1.51,1.15,2.96.44,4.33-.77,1.47-2.66,2.18-4.18,1.98-3.04-.4-4.3-4.38-4.73-5.76-.42-1.33-.9-2.85-.11-4.33.56-1.05,1.74-2.02,3.05-2.09Z"/>
  <path class="cls-8" d="M561.19,410.66c7.61-3.47,18.3,1.91,21.03,8.59,1.45,3.53.31,6.58,2.53,7.93,2.24,1.36,4.51-1.08,9.57-.87.71.03,4.86.2,7.93,2.52,4.8,3.63,5.93,11.72,3.63,17.62-3.96,10.19-17.16,11.32-17.83,11.37-10.84.76-18.55-7.06-23.56-12.14-4.48-4.55-13.2-13.39-11.23-23.78.16-.82,1.71-8.39,7.93-11.23Z"/>
  <path class="cls-8" d="M527.72,381.59c-.16.82.86,1.66,1.72,2.35,3.27,2.61,6.09,2.26,9.62,3.38,1.29.41,6.86,2.34,9.58,6.94,2.46,4.16.61,7.15,3.19,9.36,1.39,1.19,2.79,1.05,8.04.99,9.24-.11,13.99.21,17.07.55,6.73.74,8.49,1.86,9.14,2.31,3.41,2.37,3.3,5.01,5.83,5.6,3.78.88,5.73-4.6,10.02-4.06,4.08.51,5.69,5.88,9.14,5.17.27-.05,1.35-.28,1.76-1.1.77-1.56-1.79-3.39-3.85-7.27-2.52-4.73-1.08-6.44-3.3-8.37-2.12-1.84-4.03-.81-8.14-2-3.78-1.1-4.96-2.78-8.81-5.38-4.54-3.06-10.8-7.28-17.4-6.83-6.66.46-6.63,5.2-13.54,5.4-6.89.19-13.75-4.32-14.2-4.62-2.8-1.89-3.51-3.17-6.28-3.96-4.23-1.21-9.26-.12-9.58,1.54Z"/>
  <circle class="cls-5" cx="532.45" cy="414.25" r="2.97"/>
  <circle class="cls-2" cx="623.62" cy="543.45" r="4.1"/>
  <circle class="cls-2" cx="597.85" cy="522.97" r="4.1"/>
  <circle class="cls-2" cx="562.18" cy="464.83" r="4.1"/>
  <path class="cls-1" d="M609.34,558.05c1.68.2,4.48,13.39-1.39,24.96-6.07,11.94-18.8,17.07-19.6,16.15-.46-.54,3.15-3.05,3.67-7.85.32-2.9-.57-5.53-1.69-7.63,3.34-1.9,7.7-4.96,11.38-9.84,6.16-8.15,6.33-15.93,7.63-15.78Z"/>
  <path class="cls-4" d="M479.15,452.79v94.41h21.98c.03-8.84.06-17.67.09-26.51,6.48.04,12.95.09,19.43.13,6.22,8.79,12.43,17.59,18.65,26.38h23.47c-6.97-10.14-13.94-20.28-20.9-30.41,2.87-1.22,9.76-4.6,14.55-12.27,4.99-7.98,4.78-15.92,4.63-19.59-.09-2.29-.29-6.36-2.12-10.97-4.1-10.29-13.19-15.26-16.57-16.9-2.64-1.15-6.02-2.36-10.03-3.2-3.56-.74-6.76-1.01-9.41-1.05-14.59,0-29.18-.01-43.76-.02Z"/>
  <path class="cls-4" d="M502.53,469.53c-.09,10.97-.17,21.94-.26,32.92,6.88-.02,13.76-.04,20.65-.06,10.07.27,18.01-8.21,17.42-17.42-.55-8.51-8.27-15.61-17.55-15.24-6.75-.06-13.51-.13-20.26-.19Z"/>
</svg>